HIERARCHY
ROOT hip
{
	OFFSET 0.000000 0.000000 0.000000 
	CHANNELS 6 Xposition Yposition Zposition Zrotation Yrotation Xrotation
	JOINT abdomen
	{
		OFFSET 0.000000 20.688101 -0.731520 
		CHANNELS 3 Zrotation Xrotation Yrotation
		JOINT chest
		{
			OFFSET 0.000000 11.704300 -0.487680 
			CHANNELS 3 Zrotation Xrotation Yrotation
			JOINT neck
			{
				OFFSET 0.000000 22.189400 -2.194560 
				CHANNELS 3 Zrotation Xrotation Yrotation
				JOINT head
				{
					OFFSET -0.243840 7.071330 1.219200 
					CHANNELS 3 Zrotation Xrotation Yrotation
					JOINT leftEye
					{
						OFFSET 4.145280 8.046740 8.046720 
						CHANNELS 3 Zrotation Xrotation Yrotation
						End Site
						{
							OFFSET 1.000000 0.000000 0.000000 
						}
					}
					JOINT rightEye
					{
						OFFSET -3.657600 8.046740 8.046720 
						CHANNELS 3 Zrotation Xrotation Yrotation
						End Site
						{
							OFFSET 1.000000 0.000000 0.000000 
						}
					}
				}
			}
			JOINT rCollar
			{
				OFFSET -2.682240 19.263399 -4.876800 
				CHANNELS 3 Zrotation Xrotation Yrotation
				JOINT rShldr
				{
					OFFSET -8.778240 -1.950730 1.463040 
					CHANNELS 3 Zrotation Xrotation Yrotation
					JOINT rForeArm
					{
						OFFSET -28.174200 -1.711500 0.487680 
						CHANNELS 3 Zrotation Xrotation Yrotation
						JOINT rHand
						{
							OFFSET -22.587900 0.773209 7.071360 
							CHANNELS 3 Zrotation Xrotation Yrotation
							JOINT rThumb1
							{
								OFFSET -1.219200 -0.487915 3.413760 
								CHANNELS 3 Zrotation Xrotation Yrotation
								JOINT rThumb2
								{
									OFFSET -3.370350 -0.524490 3.413760 
									CHANNELS 3 Zrotation Xrotation Yrotation
									End Site
									{
										OFFSET -1.782710 -1.182140 1.430490 
									}
								}
							}
							JOINT rIndex1
							{
								OFFSET -7.759470 0.938293 5.608320 
								CHANNELS 3 Zrotation Xrotation Yrotation
								JOINT rIndex2
								{
									OFFSET -2.540570 -0.884171 1.565380 
									CHANNELS 3 Zrotation Xrotation Yrotation
									End Site
									{
										OFFSET -1.625190 -0.234802 1.165020 
									}
								}
							}
							JOINT rMid1
							{
								OFFSET -8.247140 1.182130 3.413760 
								CHANNELS 3 Zrotation Xrotation Yrotation
								JOINT rMid2
								{
									OFFSET -3.101650 -0.590103 1.064700 
									CHANNELS 3 Zrotation Xrotation Yrotation
									End Site
									{
										OFFSET -2.485470 -0.328903 0.837420 
									}
								}
							}
							JOINT rRing1
							{
								OFFSET -8.828220 0.546677 1.516780 
								CHANNELS 3 Zrotation Xrotation Yrotation
								JOINT rRing2
								{
									OFFSET -2.609340 -0.819778 -0.019849 
									CHANNELS 3 Zrotation Xrotation Yrotation
									End Site
									{
										OFFSET -2.338420 -0.294052 0.168128 
									}
								}
							}
							JOINT rPinky1
							{
								OFFSET -8.272020 -0.047791 -0.458400 
								CHANNELS 3 Zrotation Xrotation Yrotation
								JOINT rPinky2
								{
									OFFSET -1.827340 -0.647385 -0.700984 
									CHANNELS 3 Zrotation Xrotation Yrotation
									End Site
									{
										OFFSET -1.692250 -0.517670 -0.607171 
									}
								}
							}
						}
					}
				}
			}
			JOINT lCollar
			{
				OFFSET 2.682240 19.263399 -4.876800 
				CHANNELS 3 Zrotation Xrotation Yrotation
				JOINT lShldr
				{
					OFFSET 8.778240 -1.950730 1.463040 
					CHANNELS 3 Zrotation Xrotation Yrotation
					JOINT lForeArm
					{
						OFFSET 28.174200 -1.711500 0.487680 
						CHANNELS 3 Zrotation Xrotation Yrotation
						JOINT lHand
						{
							OFFSET 22.587900 0.773209 7.071360 
							CHANNELS 3 Zrotation Xrotation Yrotation
							JOINT lThumb1
							{
								OFFSET 1.219200 -0.487915 3.413760 
								CHANNELS 3 Zrotation Xrotation Yrotation
								JOINT lThumb2
								{
									OFFSET 3.370350 -0.524490 3.413760 
									CHANNELS 3 Zrotation Xrotation Yrotation
									End Site
									{
										OFFSET 1.782710 -1.182140 1.430490 
									}
								}
							}
							JOINT lIndex1
							{
								OFFSET 7.759470 0.938293 5.608320 
								CHANNELS 3 Zrotation Xrotation Yrotation
								JOINT lIndex2
								{
									OFFSET 2.540570 -0.884171 1.565380 
									CHANNELS 3 Zrotation Xrotation Yrotation
									End Site
									{
										OFFSET 1.625190 -0.234802 1.165020 
									}
								}
							}
							JOINT lMid1
							{
								OFFSET 8.247140 1.182130 3.413760 
								CHANNELS 3 Zrotation Xrotation Yrotation
								JOINT lMid2
								{
									OFFSET 3.101650 -0.590103 1.064700 
									CHANNELS 3 Zrotation Xrotation Yrotation
									End Site
									{
										OFFSET 2.485470 -0.328903 0.837420 
									}
								}
							}
							JOINT lRing1
							{
								OFFSET 8.828220 0.546677 1.516780 
								CHANNELS 3 Zrotation Xrotation Yrotation
								JOINT lRing2
								{
									OFFSET 2.609340 -0.819778 -0.019849 
									CHANNELS 3 Zrotation Xrotation Yrotation
									End Site
									{
										OFFSET 2.338420 -0.294052 0.168128 
									}
								}
							}
							JOINT lPinky1
							{
								OFFSET 8.272020 -0.047791 -0.458400 
								CHANNELS 3 Zrotation Xrotation Yrotation
								JOINT lPinky2
								{
									OFFSET 1.827340 -0.647385 -0.700984 
									CHANNELS 3 Zrotation Xrotation Yrotation
									End Site
									{
										OFFSET 1.692250 -0.517670 -0.607171 
									}
								}
							}
						}
					}
				}
			}
		}
	}
	JOINT rButtock
	{
		OFFSET -8.778240 4.350840 1.219200 
		CHANNELS 3 Zrotation Xrotation Yrotation
		JOINT rThigh
		{
			OFFSET 0.000000 -1.706870 -2.194560 
			CHANNELS 3 Zrotation Xrotation Yrotation
			JOINT rShin
			{
				OFFSET 0.000000 -36.819901 0.731520 
				CHANNELS 3 Zrotation Xrotation Yrotation
				JOINT rFoot
				{
					OFFSET 0.731520 -45.110401 -5.120640 
					CHANNELS 3 Zrotation Xrotation Yrotation
					End Site
					{
						OFFSET -1.122100 -3.699640 12.103000 
					}
				}
			}
		}
	}
	JOINT lButtock
	{
		OFFSET 8.778240 4.350840 1.219200 
		CHANNELS 3 Zrotation Xrotation Yrotation
		JOINT lThigh
		{
			OFFSET 0.000000 -1.706870 -2.194560 
			CHANNELS 3 Zrotation Xrotation Yrotation
			JOINT lShin
			{
				OFFSET 0.000000 -36.819901 0.731520 
				CHANNELS 3 Zrotation Xrotation Yrotation
				JOINT lFoot
				{
					OFFSET -0.731520 -45.110401 -5.120640 
					CHANNELS 3 Zrotation Xrotation Yrotation
					End Site
					{
						OFFSET 1.122100 -3.699640 12.103000 
					}
				}
			}
		}
	}
}
MOTION
Frames: 6
Frame Time: 0.008333
-34.333599 82.795502 -140.893997 -178.662994 -12.400300 -167.981995 5.551720 -15.011900 9.489500 -3.620760 -3.651830 1.936520 -29.441601 33.888100 -6.540850 64.519203 -34.903900 -8.100670 -0.000000 0.000000 0.000000 -0.000000 0.000000 0.000000 0.000000 0.000000 0.000000 81.377403 15.741500 -4.427010 -13.770600 -6.772240 25.093000 -0.478676 19.279100 2.817740 -0.000000 0.000000 -0.000000 -0.000000 0.000000 -0.000000 -0.000000 0.000000 -0.000000 7.730910 5.474880 0.417314 -0.000000 0.000000 -0.000000 2.905540 0.965183 0.102902 -0.000000 0.000000 -0.000000 10.278600 0.731801 0.025912 -0.000000 0.000000 -0.000000 2.221670 -0.733487 -0.208920 0.000000 0.000000 0.000000 -84.779900 38.957901 10.178900 15.339500 -8.087520 -28.290501 2.438390 -39.810699 6.727070 0.000000 -0.000000 0.000000 0.000000 -0.000000 0.000000 0.000000 -0.000000 0.000000 -7.730910 5.474880 -0.417314 0.000000 -0.000000 0.000000 -2.905540 0.965183 -0.102902 0.000000 -0.000000 0.000000 -10.278600 0.731801 -0.025912 0.000000 -0.000000 0.000000 -2.221670 -0.733487 0.208920 -0.000000 0.000000 -0.000000 -0.700513 -21.122999 -13.996500 -0.064159 23.896799 0.317890 4.056590 -15.870700 13.984900 0.000000 0.000000 0.000000 3.734050 -27.278000 1.845220 0.169612 26.691099 -0.324858 -3.840510 -12.630900 -14.599800 
-34.412899 82.798103 -140.828003 -178.671997 -12.223000 -168.024002 5.346760 -14.855000 9.179190 -3.509970 -3.659000 1.869010 -28.923000 35.084000 -6.914770 65.116096 -36.619202 -8.370190 -0.000000 0.000000 0.000000 -0.000000 0.000000 0.000000 0.000000 -0.000000 0.000000 81.406502 16.047600 -4.384450 -13.774000 -6.775170 25.100901 -0.477326 19.253099 2.813650 -0.000000 0.000000 -0.000000 -0.000000 0.000000 -0.000000 -0.000000 0.000000 -0.000000 7.730910 5.474880 0.417314 -0.000000 0.000000 -0.000000 2.905540 0.965183 0.102902 -0.000000 0.000000 -0.000000 10.278600 0.731801 0.025912 -0.000000 0.000000 -0.000000 2.221670 -0.733487 -0.208920 0.000000 -0.000000 0.000000 -84.866997 38.840500 10.260300 15.315000 -8.065840 -28.239799 2.434830 -39.787601 6.721520 -0.000000 -0.000000 0.000000 -0.000000 -0.000000 0.000000 -0.000000 -0.000000 0.000000 -7.730910 5.474880 -0.417314 -0.000000 -0.000000 0.000000 -2.905540 0.965183 -0.102902 -0.000000 -0.000000 0.000000 -10.278600 0.731801 -0.025912 -0.000000 -0.000000 0.000000 -2.221670 -0.733487 0.208920 -0.000000 0.000000 -0.000000 -0.630718 -21.166800 -13.396800 -0.064407 23.946600 0.321741 3.876520 -15.826800 13.469800 0.000000 0.000000 0.000000 3.630550 -27.229700 1.810310 0.169415 26.682800 -0.326272 -3.773310 -12.611900 -14.396100 
-34.492699 82.800598 -140.757996 -178.690002 -12.027800 -168.063004 5.150510 -14.698200 8.866830 -3.393150 -3.664510 1.800460 -28.378799 36.192402 -7.292790 65.654999 -38.243301 -8.627890 -0.000000 0.000000 0.000000 -0.000000 0.000000 0.000000 0.000000 -0.000000 0.000000 81.427902 16.340900 -4.344110 -13.777600 -6.777880 25.108700 -0.476354 19.234400 2.810690 -0.000000 0.000000 -0.000000 -0.000000 0.000000 -0.000000 -0.000000 0.000000 -0.000000 7.730910 5.474880 0.417314 -0.000000 0.000000 -0.000000 2.905540 0.965183 0.102902 -0.000000 0.000000 -0.000000 10.278600 0.731801 0.025912 -0.000000 0.000000 -0.000000 2.221670 -0.733487 -0.208920 0.000000 -0.000000 0.000000 -84.954597 38.712898 10.333300 15.276000 -8.031510 -28.158600 2.423350 -39.713200 6.703650 -0.000000 -0.000000 0.000000 -0.000000 -0.000000 0.000000 -0.000000 -0.000000 0.000000 -7.730910 5.474880 -0.417314 -0.000000 -0.000000 0.000000 -2.905540 0.965183 -0.102902 -0.000000 -0.000000 0.000000 -10.278600 0.731801 -0.025912 -0.000000 -0.000000 0.000000 -2.221670 -0.733487 0.208920 -0.000000 0.000000 -0.000000 -0.555493 -21.221600 -12.787500 -0.064810 24.000200 0.325596 3.697590 -15.773200 12.960800 0.000000 0.000000 0.000000 3.539520 -27.188801 1.801410 0.169140 26.675800 -0.327571 -3.709970 -12.590900 -14.206100 
-34.572498 82.802498 -140.682999 -178.697006 -11.823700 -168.098999 4.966500 -14.541800 8.548880 -3.268260 -3.664820 1.729970 -27.800100 37.216400 -7.678270 66.139198 -39.788601 -8.863670 -0.000000 0.000000 0.000000 -0.000000 0.000000 0.000000 0.000000 -0.000000 0.000000 81.439102 16.624300 -4.303100 -13.782700 -6.781060 25.118500 -0.475958 19.226801 2.809490 -0.000000 0.000000 -0.000000 -0.000000 0.000000 -0.000000 -0.000000 0.000000 -0.000000 7.730910 5.474880 0.417314 -0.000000 0.000000 -0.000000 2.905540 0.965183 0.102902 -0.000000 0.000000 -0.000000 10.278600 0.731801 0.025912 -0.000000 0.000000 -0.000000 2.221670 -0.733487 -0.208920 0.000000 -0.000000 0.000000 -85.041100 38.562199 10.393200 15.216100 -7.978960 -28.034100 2.401030 -39.567299 6.668750 -0.000000 -0.000000 0.000000 -0.000000 -0.000000 0.000000 -0.000000 -0.000000 0.000000 -7.730910 5.474880 -0.417314 -0.000000 -0.000000 0.000000 -2.905540 0.965183 -0.102902 -0.000000 -0.000000 0.000000 -10.278600 0.731801 -0.025912 -0.000000 -0.000000 0.000000 -2.221670 -0.733487 0.208920 -0.000000 0.000000 -0.000000 -0.471661 -21.287100 -12.171100 -0.065365 24.055599 0.329418 3.520810 -15.709400 12.460700 0.000000 0.000000 0.000000 3.463820 -27.157000 1.818210 0.168746 26.671400 -0.328772 -3.650740 -12.569200 -14.029400 
-34.650101 82.804001 -140.602005 -178.701004 -11.602400 -168.130997 4.786240 -14.383200 8.226470 -3.135720 -3.660720 1.658350 -27.183001 38.168800 -8.069330 66.586502 -41.276501 -9.065430 -0.000000 0.000000 0.000000 -0.000000 0.000000 0.000000 0.000000 0.000000 0.000000 81.441803 16.902500 -4.261000 -13.789100 -6.784840 25.130501 -0.475947 19.226601 2.809450 0.000000 0.000000 -0.000000 0.000000 0.000000 -0.000000 0.000000 0.000000 -0.000000 7.730910 5.474880 0.417314 0.000000 0.000000 -0.000000 2.905540 0.965183 0.102902 0.000000 0.000000 -0.000000 10.278600 0.731801 0.025912 0.000000 0.000000 -0.000000 2.221670 -0.733487 -0.208920 0.000000 0.000000 0.000000 -85.125603 38.395599 10.440700 15.139000 -7.911440 -27.874599 2.370010 -39.361801 6.619970 -0.000000 -0.000000 0.000000 -0.000000 -0.000000 0.000000 -0.000000 -0.000000 0.000000 -7.730910 5.474880 -0.417314 -0.000000 -0.000000 0.000000 -2.905540 0.965183 -0.102902 -0.000000 -0.000000 0.000000 -10.278600 0.731801 -0.025912 -0.000000 -0.000000 0.000000 -2.221670 -0.733487 0.208920 -0.000000 0.000000 -0.000000 -0.384195 -21.362400 -11.541900 -0.066084 24.116100 0.333276 3.344510 -15.636700 11.962500 0.000000 0.000000 0.000000 3.395570 -27.129601 1.858070 0.168243 26.665899 -0.329830 -3.594640 -12.546300 -13.863600 
-34.731899 82.805199 -140.518997 -178.692993 -11.373900 -168.162003 4.608190 -14.223500 7.906740 -2.999810 -3.659610 1.587030 -26.558100 39.034100 -8.454400 66.989502 -42.664001 -9.254400 -0.000000 0.000000 0.000000 -0.000000 0.000000 0.000000 0.000000 0.000000 -0.000000 81.440598 17.165800 -4.224630 -13.794100 -6.787560 25.139601 -0.476015 19.227900 2.809660 0.000000 0.000000 -0.000000 0.000000 0.000000 -0.000000 0.000000 0.000000 -0.000000 7.730910 5.474880 0.417314 0.000000 0.000000 -0.000000 2.905540 0.965183 0.102902 0.000000 0.000000 -0.000000 10.278600 0.731801 0.025912 0.000000 0.000000 -0.000000 2.221670 -0.733487 -0.208920 0.000000 0.000000 -0.000000 -85.212303 38.236801 10.486100 15.055500 -7.838630 -27.702801 2.335970 -39.133400 6.566120 0.000000 -0.000000 0.000000 0.000000 -0.000000 0.000000 0.000000 -0.000000 0.000000 -7.730910 5.474880 -0.417314 0.000000 -0.000000 0.000000 -2.905540 0.965183 -0.102902 0.000000 -0.000000 0.000000 -10.278600 0.731801 -0.025912 0.000000 -0.000000 0.000000 -2.221670 -0.733487 0.208920 -0.000000 0.000000 -0.000000 -0.294779 -21.448700 -10.898100 -0.066968 24.184099 0.337203 3.168490 -15.555200 11.465000 0.000000 0.000000 0.000000 3.334040 -27.106300 1.923600 0.167716 26.659599 -0.330741 -3.541830 -12.519600 -13.711400 
